<?xml version="1.0" standalone="no"?>
<!DOCTYPE svg PUBLIC "-//W3C//DTD SVG 20010904//EN"
 "http://www.w3.org/TR/2001/REC-SVG-20010904/DTD/svg10.dtd">
<svg version="1.0" xmlns="http://www.w3.org/2000/svg"
 width="1138.000000pt" height="1138.000000pt" viewBox="0 0 1138.000000 1138.000000"
 preserveAspectRatio="xMidYMid meet">
<metadata>
Created by potrace 1.11, written by Peter Selinger 2001-2013
</metadata>
<g transform="translate(0.000000,1138.000000) scale(0.100000,-0.100000)"
fill="#000000" stroke="none">
<path d="M5390 11374 c-25 -2 -108 -8 -185 -14 -176 -14 -446 -52 -639 -91
-936 -188 -1788 -597 -2537 -1219 -160 -134 -565 -539 -699 -699 -761 -917
-1201 -1981 -1312 -3176 -19 -210 -16 -817 5 -1020 80 -745 255 -1355 568
-1985 287 -577 622 -1043 1074 -1495 444 -445 928 -795 1480 -1070 870 -433
1769 -627 2758 -594 1270 43 2501 522 3477 1355 148 126 508 486 634 634 626
734 1060 1626 1250 2570 133 662 144 1407 31 2078 -240 1416 -1019 2701 -2163
3571 -298 226 -575 397 -922 570 -627 312 -1246 489 -1975 566 -141 15 -734
28 -845 19z m2312 -2052 c74 -36 132 -95 170 -170 l23 -47 3 -3352 2 -3353
168 0 c182 0 258 -12 340 -54 121 -61 214 -170 252 -293 29 -93 29 -332 0
-425 -53 -172 -201 -304 -375 -338 -59 -11 -796 -8 -1277 5 l-198 6 0 3565 0
3565 -1237 -4 c-1349 -4 -1323 -3 -1593 -63 -274 -62 -471 -166 -637 -337
-205 -212 -305 -461 -333 -834 -13 -169 9 -502 42 -631 l11 -44 279 279 c154
153 329 331 390 396 l111 117 33 183 c18 100 40 200 49 223 28 74 71 131 122
161 43 25 56 28 133 26 191 -4 519 -128 613 -232 67 -74 62 -109 -40 -324 -82
-172 -87 -204 -44 -291 24 -49 54 -86 125 -153 85 -81 141 -123 149 -112 117
154 531 643 607 718 270 266 504 385 695 353 119 -19 238 -95 266 -169 41
-109 -31 -228 -273 -451 -318 -292 -327 -306 -518 -847 -70 -198 -137 -381
-150 -405 -64 -127 -159 -221 -254 -250 -23 -7 -73 -11 -125 -8 -77 4 -96 9
-184 51 -202 96 -352 214 -731 577 -152 146 -282 265 -289 265 -19 0 -138
-164 -274 -380 -69 -110 -148 -227 -174 -260 l-49 -60 53 -33 c221 -141 601
-269 917 -309 184 -23 726 -26 860 -5 287 46 476 135 645 306 171 173 312 430
441 802 43 125 46 138 31 149 -15 11 -4 23 84 100 55 48 103 84 107 80 4 -4 7
-122 6 -263 -1 -210 -5 -283 -23 -402 -130 -858 -552 -1387 -1253 -1570 -167
-43 -287 -59 -546 -71 -272 -12 -819 2 -1002 26 -532 70 -921 241 -1229 539
-299 290 -529 694 -636 1116 -122 483 -100 1102 56 1558 105 306 270 565 496
783 362 347 825 551 1395 613 99 11 469 14 1913 12 l1790 -1 67 -33z"/>
</g>
</svg>
