<?xml version="1.0" standalone="no"?>
<!DOCTYPE svg PUBLIC "-//W3C//DTD SVG 20010904//EN"
 "http://www.w3.org/TR/2001/REC-SVG-20010904/DTD/svg10.dtd">
<svg version="1.0" xmlns="http://www.w3.org/2000/svg"
 width="1138.000000pt" height="1138.000000pt" viewBox="0 0 1138.000000 1138.000000"
 preserveAspectRatio="xMidYMid meet">
<metadata>
Created by potrace 1.11, written by Peter Selinger 2001-2013
</metadata>
<g transform="translate(0.000000,1138.000000) scale(0.100000,-0.100000)"
fill="#000000" stroke="none">
<path d="M5335 11370 c-513 -35 -967 -124 -1450 -285 -686 -228 -1284 -563
-1860 -1041 -167 -139 -550 -522 -689 -689 -622 -750 -1031 -1596 -1220 -2520
-151 -742 -153 -1519 -5 -2260 143 -719 433 -1417 845 -2037 460 -692 1079
-1283 1803 -1720 762 -461 1625 -732 2539 -799 214 -15 775 -6 972 16 699 78
1312 254 1915 550 567 278 1035 609 1484 1049 809 794 1363 1809 1590 2916 74
363 101 623 108 1037 9 561 -35 965 -162 1478 -339 1371 -1187 2578 -2363
3359 -305 203 -711 418 -1030 546 -507 202 -1029 329 -1592 385 -184 19 -702
27 -885 15z m2249 -2010 c38 -6 88 -19 112 -29 63 -28 139 -104 174 -174 l30
-60 0 -3349 0 -3348 178 0 c255 0 337 -26 458 -145 107 -106 154 -231 154
-415 0 -181 -41 -297 -141 -405 -66 -71 -162 -126 -249 -145 -54 -11 -834 -8
-1302 5 l-188 6 -2 3562 -3 3562 -1190 0 c-1248 0 -1301 -2 -1545 -46 -582
-104 -920 -421 -1031 -965 -30 -146 -36 -423 -15 -628 18 -167 33 -256 44
-256 7 0 368 362 654 655 l118 120 34 192 c26 145 43 209 66 257 49 103 126
156 228 156 147 0 453 -105 590 -203 107 -77 107 -129 1 -349 -61 -128 -73
-161 -73 -203 0 -66 29 -127 92 -196 48 -53 182 -169 195 -169 3 0 117 136
253 303 349 426 522 592 735 702 165 85 304 97 432 37 163 -76 205 -173 135
-313 -34 -67 -94 -132 -355 -379 -136 -130 -215 -233 -269 -356 -14 -32 -81
-218 -150 -413 -79 -226 -139 -380 -164 -421 -59 -100 -113 -155 -186 -191
-56 -28 -77 -33 -142 -33 -117 0 -215 38 -387 151 -168 111 -277 207 -753 668
l-93 90 -30 -35 c-59 -71 -154 -210 -256 -375 -59 -93 -129 -199 -156 -234
l-51 -63 25 -19 c53 -42 332 -171 459 -213 279 -91 489 -124 862 -133 352 -9
585 20 780 96 302 119 520 374 705 825 59 143 124 336 117 347 -3 5 -12 9 -21
9 -13 0 185 180 208 188 12 5 12 -421 -1 -549 -59 -587 -275 -1067 -615 -1363
-247 -214 -544 -339 -930 -391 -264 -36 -1040 -27 -1329 15 -616 88 -1062 336
-1388 770 -378 504 -547 1100 -499 1760 46 621 239 1082 606 1444 399 393 933
611 1580 646 220 11 3408 11 3489 0z"/>
</g>
</svg>
